<svg xmlns="http://www.w3.org/2000/svg" xmlns:xlink="http://www.w3.org/1999/xlink" version="1.1" x="0px" y="0px" fill="#222222" viewBox="0 0 100 125" enable-background="new 0 0 100 100" xml:space="preserve"><path d="M80.309,14.891l-3.032,14.641H9.964l13.06,38.556h46.268l-1.274,6.154c-2.99,0.171-5.464,2.276-6.191,5.084H37.564  c-0.758-2.929-3.416-5.104-6.58-5.104c-3.752,0-6.804,3.055-6.804,6.805c0,3.752,3.052,6.805,6.804,6.805  c3.164,0,5.822-2.174,6.58-5.104h24.262c0.759,2.93,3.416,5.104,6.58,5.104c3.753,0,6.805-3.053,6.805-6.805  c0-2.693-1.578-5.021-3.855-6.123l11.724-56.611h6.957v-3.402H80.309z M30.984,84.43c-1.875,0-3.402-1.525-3.402-3.402  s1.526-3.402,3.402-3.402s3.402,1.525,3.402,3.402S32.86,84.43,30.984,84.43z M19.102,45.905h7.644v8h-4.934L19.102,45.905z   M30.147,45.905h15.309v8H30.147V45.905z M48.858,42.502v-9.568h15.309v9.568H48.858z M64.167,45.905v8H48.858v-8H64.167z   M45.456,42.502H30.147v-9.568h15.309V42.502z M45.456,57.307v7.379H30.147v-7.379H45.456z M48.858,57.307h15.309v7.379H48.858  V57.307z M67.569,57.307h3.796l-1.459,7.379h-2.337V57.307z M67.569,53.904v-8h6.05l-1.581,8H67.569z M74.292,42.502h-6.723v-9.568  h8.614L74.292,42.502z M26.745,32.935v9.568h-8.796l-3.241-9.568H26.745z M22.963,57.307h3.782v7.379h-1.282L22.963,57.307z   M68.406,84.43c-1.875,0-3.402-1.525-3.402-3.402s1.527-3.402,3.402-3.402c1.876,0,3.402,1.525,3.402,3.402  S70.282,84.43,68.406,84.43z"/></svg>
